<svg width="113" height="113" viewBox="0 0 113 113" fill="none">
<path d="M29.1446 103.258L12.4687 87.8648C2.61049 71.5316 0.184222 63.6381 0.923898 54.5131C1.74087 47.5986 2.91946 39.1529 8.62045 31.4234C15.0428 22.5064 19.3055 19.982 29.1446 13.4648C38.1357 6.0705 52.1617 3.81615 59.9308 1.91997C79.0522 -2.77355 86.248 5.88724 93.2825 14.7476C101.11 23.7998 105.839 26.9735 108.676 37.8372C110.534 47.7012 112.975 55.0377 112.524 63.4924C111.291 80.8004 105.755 83.4897 97.1308 95.5614C92.3314 101.53 89.0235 105.593 79.1722 108.389C67.5414 110.718 59.6196 113.147 50.9515 112.237C45.0309 110.921 38.7256 106.949 29.1446 103.258Z" fill="#EEEFF1"/>
</svg>
